<svg width="362" height="319" viewBox="0 0 362 319" fill="none" xmlns="http://www.w3.org/2000/svg">
<path fill-rule="evenodd" clip-rule="evenodd" d="M180.88 135.531C187.441 130.329 193.582 127.224 198.457 125.138C245.158 105.368 282.195 136.782 305.503 174.528C311.753 184.638 317.916 202.25 316.67 217.139C315.798 227.602 311.353 236.735 301.211 241.465C290.175 246.662 276.527 244.277 263.122 238.088C243.726 229.151 224.806 212.336 215.515 201.068C204.803 188.067 190.446 166.232 179.242 143.137C172.607 149.305 165.713 157.795 159.464 169.759C156.667 175.067 154.874 181.815 153.959 189.181C165.01 191.548 176.087 196.206 186.667 203.296C195.553 209.269 211.852 225.306 219.841 241.253C225.534 252.64 226.926 263.976 219.794 272.125C210.923 282.232 200.161 282.445 189.83 277.72C175.28 271.075 161.667 254.264 156.527 243.538C150.553 231.055 147.518 210.974 148.897 193.075C111.134 187.042 74.5338 208.805 62.3783 250.211C62.0036 251.439 60.6885 252.156 59.4435 251.817C58.1871 251.437 57.4648 250.101 57.8395 248.873C70.7096 205.066 109.413 181.967 149.38 188.304C150.373 180.467 152.287 173.235 155.271 167.562C162.164 154.386 169.808 145.198 177.119 138.667C175.094 134.305 173.195 129.909 171.463 125.512C163.671 105.773 159.439 86.4217 162.589 72.0982C169.862 38.9975 197.653 22.819 228.402 20.391C258.857 17.9973 292.107 29.1274 310.619 50.1971C311.481 51.1799 311.388 52.6917 310.404 53.5439C309.42 54.3962 307.925 54.3055 307.064 53.3226C289.448 33.2715 257.748 22.803 228.776 25.11C200.097 27.3829 173.998 42.2471 167.208 73.0996C164.232 86.7453 168.463 105.016 175.866 123.779C177.407 127.686 179.086 131.602 180.88 135.531ZM153.48 193.951C163.806 196.245 174.146 200.606 184.037 207.252C192.496 212.935 207.993 228.154 215.614 243.389C220.338 252.831 222.161 262.249 216.232 268.991C209.012 277.254 200.207 277.251 191.791 273.404C178.237 267.255 165.587 251.49 160.792 241.481C155.173 229.758 152.238 210.821 153.48 193.951ZM182.945 139.927C189.425 134.657 195.509 131.568 200.304 129.503C244.58 110.75 279.38 141.238 301.476 177.015C307.302 186.429 313.11 202.831 311.955 216.749C311.218 225.464 307.677 233.226 299.203 237.188C289.315 241.849 277.118 239.342 265.11 233.81C246.392 225.185 228.128 208.914 219.165 198.052C208.452 185.051 194.044 163.095 182.945 139.927Z" fill="#FF72CF"/>
<path fill-rule="evenodd" clip-rule="evenodd" d="M60.9433 247.527C62.89 246.099 68.5082 242.009 69.3742 241.414C71.8102 239.763 73.2648 239.279 74.7985 238.953C76.0342 238.709 77.349 238.623 79.5981 237.878C80.8345 237.453 82.1776 238.171 82.5817 239.413C82.9858 240.655 82.2963 241.968 81.0599 242.393C79.0135 243.037 77.6656 243.267 76.4815 243.453C75.1211 243.686 74.0772 243.924 72.031 245.334C71.0295 246.011 65.8663 250.383 63.1216 251.893C61.692 252.685 60.4852 252.787 59.9019 252.63C59.0663 252.406 58.1817 251.834 57.3974 250.785C56.3963 249.435 55.37 247.01 54.1591 244.319C53.0273 241.788 51.6912 238.951 49.8698 236.651C48.3259 234.727 46.4375 233.211 43.8958 232.908C42.5997 232.764 41.6681 231.62 41.8114 230.32C41.9547 229.019 43.126 228.071 44.4221 228.216C48.2527 228.62 51.2317 230.786 53.5695 233.712C55.6372 236.305 57.189 239.489 58.4777 242.383C59.2562 244.11 59.9334 245.728 60.5839 246.949C60.6869 247.146 60.8151 247.337 60.9433 247.527Z" fill="#FF72CF"/>
</svg>
