<svg width="233" height="42" viewBox="0 0 233 42" fill="none" xmlns="http://www.w3.org/2000/svg">
<path d="M7.81084 0.00437837H1.28603C0.579282 0.00437837 0 0.58666 0 1.29552V26.1893C0 26.8982 0.579282 27.4792 1.28603 27.4792H7.69347C8.40022 27.4792 8.9795 26.8982 8.9795 26.1893V4.04111C8.9795 3.33225 9.55752 2.77781 10.2643 2.80819C10.2643 2.80819 11.5238 2.86389 12.6786 3.54997C15.262 5.08289 16.1151 8.0462 16.1151 9.67658C16.1151 12.0728 14.5742 14.6475 12.5385 14.6475C11.4228 14.6475 11.2449 14.55 11.2449 14.55C10.624 14.2121 10.1153 14.5146 10.1153 15.2247V16.2019C10.1153 16.9108 10.6694 17.6589 11.3458 17.8627C11.3458 17.8627 13.355 18.469 15.6507 18.469C17.6927 18.469 25.0492 16.8779 25.0492 9.71076C25.053 -0.513346 8.51885 0.00437837 7.81084 0.00437837ZM197.456 10.3449C195.323 9.04367 192.828 8.3943 189.973 8.3943C187.031 8.3943 184.515 9.04367 182.425 10.3449C179.649 12.0867 178.25 14.7437 178.231 18.3133C178.213 19.8716 178.698 21.2374 178.698 21.2374C178.935 21.907 178.594 22.6767 177.943 22.9501C177.943 22.9501 172.694 26.9754 172.694 17.9728V16.2083C172.694 15.4994 173.273 14.9184 173.98 14.9184H174.703C175.41 14.9184 175.989 14.3374 175.989 13.6285V10.5285C175.989 9.81962 175.41 9.23861 174.703 9.23861H173.98C173.273 9.23861 172.694 8.65759 172.694 7.94873V4.40187C172.694 3.69301 172.146 3.3006 171.477 3.53098L166.057 5.40188C165.388 5.63226 164.84 6.40188 164.84 7.11075V7.94746C164.84 8.65633 164.261 9.23734 163.554 9.23734H163.041C162.334 9.23734 161.755 9.81836 161.755 10.5272V13.6285C161.755 14.3374 162.334 14.9184 163.041 14.9184H163.554C164.261 14.9184 164.84 15.4994 164.84 16.2083V17.2678C164.84 17.9766 164.897 17.9855 164.819 18.6893C164.819 18.6893 164.313 22.1096 160.766 23.7957C157.604 25.2982 154.887 22.8235 154.365 20.4703C153.535 16.7083 157.072 12.6184 157.06 11.9095L157.035 10.5703C157.021 9.8614 156.431 9.28038 155.723 9.28038H146.043C145.337 9.28038 145.025 9.47279 144.24 8.40569C142.927 6.61961 138.97 6.24619 138.315 9.21709C137.66 12.188 140.137 13.1918 141.094 13.2614C142.05 13.331 142.149 13.8602 142.022 14.5589C142.022 14.5589 140.193 23.6779 136.421 23.6779C134.303 23.6779 133.668 19.8311 133.668 19.8311C133.553 19.1311 133.458 17.9779 133.458 17.269V10.5285C133.458 9.81962 132.879 9.23861 132.172 9.23861H126.123C125.416 9.23861 124.837 9.81962 124.837 10.5285V19.1197C124.837 19.8285 124.746 20.9817 124.634 21.683C124.634 21.683 124.496 22.5488 123.821 23.364C123.143 24.1792 122.391 24.5855 121.575 24.5855C120.857 24.5855 118.368 23.9286 118.254 20.9868C118.062 15.9779 119.379 13.5133 122.432 11.507C123.573 10.7563 123.674 10.526 123.674 10.0209C123.674 9.51582 123.068 9.08544 122.268 9.13734C121.466 9.18924 108.589 10.3424 108.589 18.9576C108.589 22.0627 109.764 24.4172 112.119 26.0147C113.915 27.2286 115.999 27.8337 118.374 27.8337C119.49 27.8337 120.757 27.5818 122.177 27.0792C123.773 26.5159 124.462 25.9817 124.462 25.9817C125.006 25.526 125.769 25.4184 126.266 25.9248C126.266 25.9248 127.631 27.8337 131.618 27.8337C144.213 27.8337 144.752 14.9336 144.765 13.9817C144.778 13.0298 145.396 13.1564 146.103 13.1564H149.214C149.92 13.1564 150.129 13.6032 149.677 14.1475C149.677 14.1475 146.798 17.6133 146.798 20.9108C146.798 25.9628 153.006 27.5336 154.779 27.5704C161.251 27.702 164.02 23.9488 164.02 23.9488C164.524 23.4501 165.138 23.5868 165.383 24.2526C165.383 24.2526 165.988 25.8843 167.353 26.6817C168.533 27.364 169.196 27.7007 170.988 27.7007C176.199 27.7007 179.259 24.8222 179.259 24.8222C179.898 24.5159 180.847 24.6551 181.372 25.1298C181.372 25.1298 181.718 25.445 182.551 25.9336C184.723 27.2324 187.2 27.8805 189.974 27.8805C192.789 27.8805 195.271 27.2349 197.425 25.9336C200.285 24.2184 201.712 21.6387 201.712 18.183C201.711 14.6956 200.294 12.0867 197.456 10.3449ZM189.907 25.2058C188.128 25.2058 187.239 22.9982 187.239 18.583C187.239 13.8703 188.128 11.512 189.907 11.512C190.946 11.512 191.669 12.2196 192.082 13.6348C192.393 14.7032 192.55 16.3754 192.55 18.6488C192.549 23.0197 191.669 25.2058 189.907 25.2058ZM222.069 10.3449C219.937 9.04367 217.443 8.3943 214.584 8.3943C211.647 8.3943 209.13 9.04367 207.041 10.3449C204.262 12.0867 202.865 14.7437 202.847 18.3133C202.804 21.6792 204.247 24.2184 207.163 25.9336C209.338 27.2324 211.813 27.8805 214.587 27.8805C217.404 27.8805 219.891 27.2349 222.042 25.9336C224.895 24.2184 226.329 21.6387 226.329 18.183C226.326 14.6956 224.908 12.0867 222.069 10.3449ZM214.522 25.2058C212.742 25.2058 211.849 22.9982 211.849 18.583C211.849 13.8703 212.74 11.512 214.522 11.512C215.557 11.512 216.282 12.2196 216.694 13.6348C217.006 14.7032 217.161 16.3754 217.161 18.6488C217.161 23.0197 216.283 25.2058 214.522 25.2058ZM89.0251 9.28418H84.4275C83.7207 9.28418 83.1414 9.86519 83.1389 10.5741L83.125 22.6374C83.125 23.3463 82.836 23.5805 82.4865 23.1577C82.1369 22.7349 80.0419 22.164 80.3485 20.1273C80.9329 16.2551 75.554 10.1779 75.554 10.1779C75.0681 9.66139 74.0925 9.23987 73.3858 9.23987H67.073C66.3663 9.23987 65.792 9.7019 65.3844 10.2829C65.3844 10.2829 61.39 20.326 53.6258 23.2855C51.9498 23.9248 50.2764 21.7513 50.2764 17.2703C50.2764 12.7893 50.2764 10.5285 50.2764 10.5285C50.2764 9.81962 49.6971 9.23861 48.9903 9.23861H42.6435C41.9367 9.23861 41.3574 9.81962 41.3574 10.5285V19.1197C41.3574 19.8285 41.2666 20.9817 41.1543 21.683C41.1543 21.683 41.0167 22.5488 40.3377 23.364C39.6612 24.1792 38.9116 24.5855 38.095 24.5855C37.3769 24.5855 36.6651 24.2564 35.9697 23.6045C35.1709 22.8691 34.7733 21.9956 34.7733 20.9868C34.7733 19.4792 34.3404 14.5196 38.278 11.9082C39.6436 11.0032 40.1888 10.5247 40.1888 10.0209C40.1888 9.51709 39.7231 9.13987 38.7816 9.13987C31.0414 9.13987 25.1035 13.7158 25.1035 18.9602C25.1035 22.0653 26.2822 24.4197 28.636 26.0172C30.4293 27.2311 32.5155 27.8362 34.8932 27.8362C36.0089 27.8362 37.2734 27.5843 38.6945 27.0817C40.2872 26.5185 41.1757 25.7754 41.1757 25.7754C41.7196 25.3197 42.5223 25.4033 42.964 25.959C42.964 25.959 44.4507 27.8362 47.5857 27.8362C60.3854 27.8362 66.9708 14.0272 66.9708 14.0272C67.2762 13.3867 67.8656 13.3323 68.2821 13.907L71.1507 17.95C71.5899 18.5057 71.369 18.9564 70.6623 18.9501C70.6623 18.9501 62.5284 18.8779 62.5284 23.4083C62.5284 29.6539 73.695 28.7248 77.3057 25.6172C78.2762 24.7817 79.301 24.5298 79.8172 25.0159C79.8172 25.0159 83.1086 27.4336 83.1086 32.4552V33.34C83.1086 34.0489 83.6867 34.6299 84.3947 34.6299H90.0815C90.7882 34.6299 91.3675 34.0489 91.3675 33.34V13.9209C91.3675 13.212 91.9001 12.8563 92.5538 13.131C92.5538 13.131 97.9857 13.5677 97.9857 18.426C97.9857 24.2577 93.7616 24.3577 93.7616 24.3577C93.0549 24.3741 92.4756 24.9248 92.4756 25.5792C92.4756 26.2336 93.0284 26.94 93.7048 27.1476C93.7048 27.1476 95.6496 27.745 97.7447 27.745C99.8977 27.745 107.128 26.2539 107.128 18.6475C107.131 8.78544 89.7331 9.28418 89.0251 9.28418ZM68.5761 25.3184C65.9119 25.126 64.848 22.5475 69.163 21.7437C70.8491 21.4286 72.8784 21.8754 72.8784 21.8754C72.8784 21.8754 72.8772 22.5425 72.592 23.3475C72.3055 24.1514 71.2782 25.5146 68.5761 25.3184Z" fill="#6E8999"/>
<path d="M233 6.58785C233 8.55621 231.459 10.1005 229.455 10.1005C227.472 10.1005 225.888 8.55495 225.888 6.58785C225.888 4.66126 227.471 3.11694 229.455 3.11694C231.46 3.11694 233 4.66252 233 6.58785ZM226.777 6.58785C226.777 8.13343 227.916 9.36002 229.479 9.36002C230.997 9.36002 232.115 8.13343 232.115 6.60937C232.115 5.06379 230.996 3.81695 229.455 3.81695C227.914 3.81695 226.777 5.06379 226.777 6.58785ZM228.906 8.40938H228.104V4.93847C228.42 4.87518 228.865 4.83214 229.433 4.83214C230.086 4.83214 230.382 4.93847 230.635 5.08531C230.827 5.23341 230.974 5.5081 230.974 5.8486C230.974 6.22962 230.678 6.52456 230.256 6.65241V6.69418C230.596 6.82203 230.784 7.07519 230.89 7.54102C230.993 8.07014 231.056 8.28279 231.142 8.40811H230.278C230.172 8.28026 230.108 7.96381 230.004 7.56127C229.941 7.18026 229.73 7.0119 229.286 7.0119H228.906V8.40938ZM228.928 6.44101H229.308C229.751 6.44101 230.11 6.29291 230.11 5.93341C230.11 5.61696 229.876 5.4043 229.37 5.4043C229.158 5.4043 229.012 5.42582 228.927 5.44734V6.44101H228.928Z" fill="#6E8999"/>
<path d="M111.261 38.8917L111.391 39.788L111.582 38.9804L112.921 34.2424H113.674L114.981 38.9804L115.166 39.8006L115.31 38.8867L116.361 34.2411H117.259L115.618 41.031H114.804L113.409 36.0829L113.302 35.5664L113.196 36.0829L111.75 41.031H110.936L109.299 34.2411H110.192L111.261 38.8917Z" fill="#6E8999"/>
<path d="M123.982 37.8947H121.048V40.3011H124.456V41.0327H120.155V34.2428H124.41V34.9744H121.048V37.1631H123.982V37.8947Z" fill="#6E8999"/>
<path d="M127.471 41.0338V34.2439H129.685C130.419 34.2439 130.972 34.3958 131.342 34.7009C131.713 35.0047 131.898 35.4566 131.898 36.0528C131.898 36.3692 131.808 36.6502 131.627 36.8945C131.448 37.1376 131.203 37.3275 130.893 37.4604C131.26 37.5629 131.549 37.7578 131.761 38.0464C131.973 38.3338 132.079 38.6768 132.079 39.0743C132.079 39.6832 131.883 40.1629 131.49 40.511C131.095 40.8591 130.538 41.0338 129.82 41.0338H127.471ZM128.363 37.1389H129.711C130.104 37.1389 130.414 37.0401 130.648 36.8452C130.883 36.649 131 36.3819 131 36.0452C131 35.6718 130.891 35.3996 130.674 35.2287C130.456 35.0591 130.127 34.9743 129.684 34.9743H128.362V37.1389H128.363ZM128.363 37.8578V40.3022H129.838C130.253 40.3022 130.581 40.1933 130.821 39.9768C131.06 39.7616 131.18 39.4642 131.18 39.0844C131.18 38.2667 130.737 37.8578 129.851 37.8578H128.363Z" fill="#6E8999"/>
<path d="M139.565 41.0338V34.2439H141.477C142.067 34.2439 142.587 34.3755 143.039 34.6363C143.49 34.8971 143.841 35.2692 144.087 35.7515C144.333 36.2338 144.458 36.7857 144.462 37.4123V37.8452C144.462 38.487 144.339 39.0477 144.092 39.5287C143.846 40.011 143.493 40.3806 143.036 40.6389C142.579 40.8971 142.047 41.03 141.44 41.0351H139.565V41.0338ZM140.459 34.9743V40.3009H141.398C142.086 40.3009 142.621 40.0857 143.003 39.6566C143.387 39.2262 143.576 38.6161 143.576 37.8224V37.4262C143.576 36.654 143.396 36.054 143.035 35.6262C142.674 35.1983 142.161 34.9806 141.498 34.9743H140.459Z" fill="#6E8999"/>
<path d="M151.541 37.8947H148.608V40.3011H152.014V41.0327H147.714V34.2428H151.969V34.9744H148.608V37.1631H151.541V37.8947Z" fill="#6E8999"/>
<path d="M157.272 39.8441L159.207 34.2428H160.182L157.671 41.0327H156.881L154.375 34.2428H155.347L157.272 39.8441Z" fill="#6E8999"/>
<path d="M166.819 37.8947H163.885V40.3011H167.294V41.0327H162.993V34.2428H167.247V34.9744H163.885V37.1631H166.819V37.8947Z" fill="#6E8999"/>
<path d="M171.206 40.3011H174.416V41.0327H170.309V34.2428H171.206V40.3011Z" fill="#6E8999"/>
<path d="M182.241 37.858C182.241 38.5226 182.13 39.1036 181.907 39.5998C181.684 40.096 181.368 40.4732 180.959 40.734C180.55 40.996 180.072 41.1264 179.527 41.1264C178.993 41.1264 178.521 40.9947 178.108 40.7327C177.695 40.4694 177.376 40.0947 177.148 39.6074C176.919 39.1213 176.803 38.558 176.797 37.9175V37.4276C176.797 36.7745 176.91 36.1972 177.136 35.6972C177.364 35.196 177.684 34.8137 178.098 34.5479C178.512 34.282 178.985 34.1504 179.518 34.1504C180.061 34.1504 180.539 34.282 180.953 34.5441C181.367 34.8074 181.685 35.1884 181.908 35.6871C182.132 36.1858 182.243 36.7669 182.243 37.4289V37.858H182.241ZM181.354 37.4188C181.354 36.6137 181.194 35.996 180.871 35.5656C180.548 35.1339 180.097 34.9187 179.518 34.9187C178.954 34.9187 178.509 35.1339 178.185 35.5656C177.861 35.996 177.694 36.5934 177.685 37.358V37.858C177.685 38.6378 177.848 39.2517 178.176 39.6973C178.503 40.1441 178.952 40.3656 179.527 40.3656C180.103 40.3656 180.55 40.1555 180.866 39.734C181.181 39.3124 181.344 38.7086 181.354 37.9226V37.4188Z" fill="#6E8999"/>
<path d="M186.378 38.3756V41.0338H185.485V34.2439H187.982C188.725 34.2439 189.304 34.4338 189.724 34.8123C190.144 35.192 190.354 35.6933 190.354 36.3186C190.354 36.9781 190.149 37.4857 189.738 37.8414C189.328 38.1971 188.74 38.3756 187.975 38.3756H186.378ZM186.378 37.6426H187.982C188.461 37.6426 188.826 37.53 189.079 37.3034C189.334 37.0781 189.462 36.7515 189.462 36.3262C189.462 35.9211 189.334 35.5971 189.079 35.354C188.826 35.111 188.477 34.9844 188.034 34.9743H186.378V37.6426Z" fill="#6E8999"/>
<path d="M194.551 34.2428L196.765 39.7833L198.977 34.2428H200.135V41.0327H199.242V38.3884L199.326 35.5339L197.102 41.0327H196.419L194.2 35.5479L194.289 38.3884V41.0327H193.396V34.2428H194.551Z" fill="#6E8999"/>
<path d="M207.442 37.8947H204.508V40.3011H207.917V41.0327H203.616V34.2428H207.87V34.9744H204.508V37.1631H207.442V37.8947Z" fill="#6E8999"/>
<path d="M216.134 41.0338H215.237L211.828 35.8009V41.0338H210.931V34.2439H211.828L215.247 39.4996V34.2439H216.134V41.0338Z" fill="#6E8999"/>
<path d="M224.168 34.9744H221.991V41.0327H221.104V34.9744H218.932V34.2428H224.167V34.9744H224.168Z" fill="#6E8999"/>
</svg>
