<svg width="591" height="116" viewBox="0 0 591 116" fill="none" xmlns="http://www.w3.org/2000/svg">
<path fill-rule="evenodd" clip-rule="evenodd" d="M431.643 17.7714C460.163 20.1434 482.63 25.3099 505.071 30.9149C578.667 49.3143 602.294 71.4833 550.072 87.9544C468.87 113.482 282.941 120.836 140.318 101.352C108.732 97.0473 65.9082 92.1977 35.0611 79.8673C6.36597 68.4015 8.27451 57.3081 22.3297 47.9033C36.6449 38.2539 63.5937 30.3431 84.9606 25.5428C178.375 4.61282 363.607 -7.34277 528.931 17.4833C532.331 17.9767 535.773 17.7825 536.798 17.0619C537.822 16.3414 536.165 15.3747 533.01 14.8985C362.83 -10.6539 171.71 1.42388 75.5631 22.9631C48.9776 28.9528 14.0208 39.6151 3.42959 52.4484C-3.72652 61.2255 0.325664 70.9983 25.1907 81.0029C57.9487 94.1303 103.439 99.4537 136.969 104.031C284.207 124.15 476.513 116.647 560.218 90.2707C616.436 72.5735 591.443 48.7531 512.297 28.9735C488.17 22.9076 463.517 17.3978 432.559 14.8239C429.146 14.5407 426.18 14.9718 426.129 15.7995C425.834 16.61 428.474 17.5054 431.643 17.7714Z" fill="#FF72CF"/>
</svg>
