<?xml version="1.0" encoding="utf-8"?>
<!-- Generator: Adobe Illustrator 19.0.0, SVG Export Plug-In . SVG Version: 6.00 Build 0)  -->
<svg version="1.1" id="Layer_1" xmlns="http://www.w3.org/2000/svg" xmlns:xlink="http://www.w3.org/1999/xlink" x="0px" y="0px"
	 viewBox="75 29 249 43" style="enable-background:new 75 29 249 43;" xml:space="preserve">
<style type="text/css">
	.st0{fill:#FFFFFF;}
</style>
<path class="st0" d="M83.3,29h-7c-0.8,0-1.4,0.6-1.4,1.3v26c0,0.7,0.6,1.3,1.4,1.3h6.8c0.8,0,1.4-0.6,1.4-1.3V33.2
	c0-0.7,0.6-1.3,1.4-1.3c0,0,1.3,0.1,2.6,0.8c2.8,1.6,3.7,4.7,3.7,6.4c0,2.5-1.6,5.2-3.8,5.2c-1.2,0-1.4-0.1-1.4-0.1
	c-0.7-0.4-1.2,0-1.2,0.7v1c0,0.7,0.6,1.5,1.3,1.7c0,0,2.1,0.6,4.6,0.6c2.2,0,10-1.7,10-9.1C101.8,28.5,84.1,29,83.3,29z M286,39.8
	c-2.3-1.4-4.9-2-8-2c-3.1,0-5.8,0.7-8.1,2c-3,1.8-4.5,4.6-4.5,8.3c0,1.6,0.5,3.1,0.5,3.1c0.3,0.7-0.1,1.5-0.8,1.8
	c0,0-5.6,4.2-5.6-5.2v-1.8c0-0.7,0.6-1.3,1.4-1.3h0.8c0.8,0,1.4-0.6,1.4-1.3V40c0-0.7-0.6-1.3-1.4-1.3h-0.8c-0.8,0-1.4-0.6-1.4-1.3
	v-3.7c0-0.7-0.6-1.1-1.3-0.9l-5.8,2c-0.7,0.2-1.3,1-1.3,1.8v0.9c0,0.7-0.6,1.3-1.4,1.3h-0.5c-0.8,0-1.4,0.6-1.4,1.3v3.2
	c0,0.7,0.6,1.3,1.4,1.3h0.5c0.8,0,1.4,0.6,1.4,1.3V47c0,0.7,0.1,0.7,0,1.5c0,0-0.5,3.6-4.3,5.3c-3.4,1.6-6.3-1-6.8-3.5
	c-0.9-3.9,2.9-8.2,2.9-8.9l0-1.4c0-0.7-0.6-1.3-1.4-1.3h-10.3c-0.8,0-1.1,0.2-1.9-0.9c-1.4-1.9-5.6-2.3-6.3,0.8
	c-0.7,3.1,1.9,4.1,3,4.2c1,0.1,1.1,0.6,1,1.4c0,0-2,9.5-6,9.5c-2.3,0-2.9-4-2.9-4c-0.1-0.7-0.2-1.9-0.2-2.7v-7
	c0-0.7-0.6-1.3-1.4-1.3h-6.5c-0.8,0-1.4,0.6-1.4,1.3v9c0,0.7-0.1,1.9-0.2,2.7c0,0-0.1,0.9-0.9,1.8c-0.7,0.9-1.5,1.3-2.4,1.3
	c-0.8,0-3.4-0.7-3.5-3.8c-0.2-5.2,1.2-7.8,4.5-9.9c1.2-0.8,1.3-1,1.3-1.6c0-0.5-0.6-1-1.5-0.9c-0.9,0.1-14.6,1.3-14.6,10.2
	c0,3.2,1.3,5.7,3.8,7.4c1.9,1.3,4.1,1.9,6.7,1.9c1.2,0,2.5-0.3,4.1-0.8c1.7-0.6,2.4-1.1,2.4-1.1c0.6-0.5,1.4-0.6,1.9-0.1
	c0,0,1.5,2,5.7,2c13.5,0,14-13.5,14-14.5c0-1,0.7-0.9,1.4-0.9h3.3c0.8,0,1,0.5,0.5,1c0,0-3.1,3.6-3.1,7.1c0,5.3,6.6,6.9,8.5,6.9
	c6.9,0.1,9.9-3.8,9.9-3.8c0.5-0.5,1.2-0.4,1.5,0.3c0,0,0.6,1.7,2.1,2.5c1.3,0.7,2,1.1,3.9,1.1c5.6,0,8.8-3,8.8-3
	c0.7-0.3,1.7-0.2,2.3,0.3c0,0,0.4,0.3,1.3,0.8c2.3,1.4,5,2,7.9,2c3,0,5.7-0.7,8-2c3.1-1.8,4.6-4.5,4.6-8.1
	C290.6,44.3,289,41.6,286,39.8z M277.9,55.3c-1.9,0-2.9-2.3-2.9-6.9c0-4.9,0.9-7.4,2.9-7.4c1.1,0,1.9,0.7,2.3,2.2
	c0.3,1.1,0.5,2.9,0.5,5.2C280.8,53,279.8,55.3,277.9,55.3z M312.3,39.8c-2.3-1.4-4.9-2-8-2c-3.1,0-5.8,0.7-8.1,2
	c-3,1.8-4.5,4.6-4.5,8.3c0,3.5,1.5,6.2,4.6,8c2.3,1.4,5,2,7.9,2c3,0,5.7-0.7,8-2c3-1.8,4.6-4.5,4.6-8.1
	C316.9,44.3,315.4,41.6,312.3,39.8z M304.3,55.3c-1.9,0-2.9-2.3-2.9-6.9c0-4.9,1-7.4,2.9-7.4c1.1,0,1.9,0.7,2.3,2.2
	c0.3,1.1,0.5,2.9,0.5,5.2C307.1,53,306.1,55.3,304.3,55.3z M170.1,38.7h-4.9c-0.8,0-1.4,0.6-1.4,1.3l0,12.6c0,0.7-0.3,1-0.7,0.5
	c-0.4-0.4-2.6-1-2.3-3.2c0.6-4-5.1-10.4-5.1-10.4c-0.5-0.5-1.6-1-2.3-1h-6.7c-0.8,0-1.4,0.5-1.8,1.1c0,0-4.3,10.5-12.6,13.6
	c-1.8,0.7-3.6-1.6-3.6-6.3s0-7,0-7c0-0.7-0.6-1.3-1.4-1.3h-6.8c-0.8,0-1.4,0.6-1.4,1.3v9c0,0.7-0.1,1.9-0.2,2.7c0,0-0.1,0.9-0.9,1.8
	c-0.7,0.9-1.5,1.3-2.4,1.3c-0.8,0-1.5-0.3-2.3-1c-0.9-0.8-1.3-1.7-1.3-2.7c0-1.6-0.5-6.7,3.7-9.5c1.5-0.9,2-1.4,2-2
	c0-0.5-0.5-0.9-1.5-0.9c-8.3,0-14.6,4.8-14.6,10.2c0,3.2,1.3,5.7,3.8,7.4c1.9,1.3,4.1,1.9,6.7,1.9c1.2,0,2.5-0.3,4.1-0.8
	c1.7-0.6,2.7-1.4,2.7-1.4c0.6-0.5,1.4-0.4,1.9,0.2c0,0,1.6,2,4.9,2c13.7,0,20.7-14.4,20.7-14.4c0.3-0.7,1-0.7,1.4-0.1l3.1,4.2
	c0.5,0.6,0.2,1.1-0.5,1c0,0-8.7-0.1-8.7,4.7c0,6.5,11.9,5.5,15.8,2.3c1-0.9,2.1-1.1,2.7-0.6c0,0,3.5,2.5,3.5,7.8v0.9
	c0,0.7,0.6,1.3,1.4,1.3h6.1c0.8,0,1.4-0.6,1.4-1.3V43.5c0-0.7,0.6-1.1,1.3-0.8c0,0,5.8,0.5,5.8,5.5c0,6.1-4.5,6.2-4.5,6.2
	c-0.8,0-1.4,0.6-1.4,1.3s0.6,1.4,1.3,1.6c0,0,2.1,0.6,4.3,0.6c2.3,0,10-1.6,10-9.5C189.5,38.2,170.9,38.7,170.1,38.7z M148.3,55.4
	c-2.8-0.2-4-2.9,0.6-3.7c1.8-0.3,4,0.1,4,0.1s0,0.7-0.3,1.5C152.3,54.2,151.2,55.6,148.3,55.4z"/>
<path class="st0" d="M324,35.9c0,2.1-1.6,3.7-3.8,3.7c-2.1,0-3.8-1.6-3.8-3.7c0-2,1.7-3.6,3.8-3.6C322.4,32.3,324,33.9,324,35.9z
	 M317.3,35.9c0,1.6,1.2,2.9,2.9,2.9c1.6,0,2.8-1.3,2.8-2.9c0-1.6-1.2-2.9-2.8-2.9C318.6,33,317.3,34.3,317.3,35.9z M319.6,37.8h-0.9
	v-3.6c0.3-0.1,0.8-0.1,1.4-0.1c0.7,0,1,0.1,1.3,0.3c0.2,0.2,0.4,0.4,0.4,0.8c0,0.4-0.3,0.7-0.8,0.8v0c0.4,0.1,0.6,0.4,0.7,0.9
	c0.1,0.6,0.2,0.8,0.3,0.9h-0.9c-0.1-0.1-0.2-0.5-0.3-0.9c-0.1-0.4-0.3-0.6-0.8-0.6h-0.4V37.8z M319.6,35.7h0.4
	c0.5,0,0.9-0.2,0.9-0.5c0-0.3-0.2-0.6-0.8-0.6c-0.2,0-0.4,0-0.5,0L319.6,35.7L319.6,35.7z"/>
<path class="st0" d="M193.9,69.6l0.1,0.9l0.2-0.8l1.4-4.9h0.8l1.4,4.9l0.2,0.9l0.2-1l1.1-4.8h1l-1.8,7.1h-0.9l-1.5-5.2l-0.1-0.5
	l-0.1,0.5l-1.5,5.2h-0.9l-1.7-7.1h1L193.9,69.6z"/>
<path class="st0" d="M207.5,68.5h-3.1v2.5h3.6v0.8h-4.6v-7.1h4.5v0.8h-3.6v2.3h3.1V68.5z"/>
<path class="st0" d="M211.2,71.8v-7.1h2.4c0.8,0,1.4,0.2,1.8,0.5c0.4,0.3,0.6,0.8,0.6,1.4c0,0.3-0.1,0.6-0.3,0.9
	c-0.2,0.3-0.5,0.5-0.8,0.6c0.4,0.1,0.7,0.3,0.9,0.6c0.2,0.3,0.3,0.7,0.3,1.1c0,0.6-0.2,1.1-0.6,1.5c-0.4,0.4-1,0.5-1.8,0.5H211.2z
	 M212.2,67.8h1.4c0.4,0,0.8-0.1,1-0.3c0.3-0.2,0.4-0.5,0.4-0.8c0-0.4-0.1-0.7-0.3-0.9c-0.2-0.2-0.6-0.3-1.1-0.3h-1.4L212.2,67.8
	L212.2,67.8z M212.2,68.5v2.6h1.6c0.4,0,0.8-0.1,1.1-0.3c0.3-0.2,0.4-0.5,0.4-0.9c0-0.9-0.5-1.3-1.4-1.3H212.2z"/>
<path class="st0" d="M224.1,71.8v-7.1h2c0.6,0,1.2,0.1,1.7,0.4c0.5,0.3,0.9,0.7,1.1,1.2c0.3,0.5,0.4,1.1,0.4,1.7v0.5
	c0,0.7-0.1,1.3-0.4,1.8c-0.3,0.5-0.6,0.9-1.1,1.2c-0.5,0.3-1.1,0.4-1.7,0.4L224.1,71.8L224.1,71.8z M225.1,65.5v5.6h1
	c0.7,0,1.3-0.2,1.7-0.7c0.4-0.4,0.6-1.1,0.6-1.9v-0.4c0-0.8-0.2-1.4-0.6-1.9c-0.4-0.4-0.9-0.7-1.6-0.7H225.1z"/>
<path class="st0" d="M236.9,68.5h-3.1v2.5h3.6v0.8h-4.6v-7.1h4.5v0.8h-3.6v2.3h3.1V68.5z"/>
<path class="st0" d="M243.1,70.6l2.1-5.8h1l-2.7,7.1h-0.8l-2.7-7.1h1L243.1,70.6z"/>
<path class="st0" d="M253.3,68.5h-3.1v2.5h3.6v0.8h-4.6v-7.1h4.5v0.8h-3.6v2.3h3.1V68.5z"/>
<path class="st0" d="M258,71.1h3.4v0.8H257v-7.1h1V71.1z"/>
<path class="st0" d="M269.8,68.5c0,0.7-0.1,1.3-0.4,1.8c-0.2,0.5-0.6,0.9-1,1.2c-0.4,0.3-0.9,0.4-1.5,0.4c-0.6,0-1.1-0.1-1.5-0.4
	c-0.4-0.3-0.8-0.7-1-1.2c-0.2-0.5-0.4-1.1-0.4-1.8v-0.5c0-0.7,0.1-1.3,0.4-1.8c0.2-0.5,0.6-0.9,1-1.2s0.9-0.4,1.5-0.4
	c0.6,0,1.1,0.1,1.5,0.4c0.4,0.3,0.8,0.7,1,1.2c0.2,0.5,0.4,1.1,0.4,1.8L269.8,68.5L269.8,68.5z M268.8,68.1c0-0.8-0.2-1.5-0.5-1.9
	c-0.3-0.5-0.8-0.7-1.4-0.7c-0.6,0-1.1,0.2-1.4,0.7c-0.3,0.4-0.5,1.1-0.5,1.9v0.5c0,0.8,0.2,1.5,0.5,1.9c0.3,0.5,0.8,0.7,1.4,0.7
	c0.6,0,1.1-0.2,1.4-0.7c0.3-0.4,0.5-1.1,0.5-1.9V68.1z"/>
<path class="st0" d="M274.2,69v2.8h-1v-7.1h2.7c0.8,0,1.4,0.2,1.9,0.6c0.4,0.4,0.7,0.9,0.7,1.6c0,0.7-0.2,1.2-0.7,1.6
	c-0.4,0.4-1.1,0.6-1.9,0.6H274.2z M274.2,68.3h1.7c0.5,0,0.9-0.1,1.2-0.4c0.3-0.2,0.4-0.6,0.4-1c0-0.4-0.1-0.8-0.4-1
	c-0.3-0.3-0.6-0.4-1.1-0.4h-1.8V68.3z"/>
<path class="st0" d="M282.9,64.7l2.4,5.8l2.4-5.8h1.2v7.1h-1v-2.8l0.1-3l-2.4,5.7h-0.7l-2.4-5.7l0.1,3v2.8h-1v-7.1H282.9z"/>
<path class="st0" d="M296.7,68.5h-3.1v2.5h3.6v0.8h-4.6v-7.1h4.5v0.8h-3.6v2.3h3.1V68.5z"/>
<path class="st0" d="M306,71.8h-1l-3.6-5.5v5.5h-1v-7.1h1l3.7,5.5v-5.5h0.9V71.8z"/>
<path class="st0" d="M314.6,65.5h-2.3v6.3h-0.9v-6.3H309v-0.8h5.6L314.6,65.5L314.6,65.5z"/>
</svg>
