<svg width="192" height="28" viewBox="0 0 192 28" fill="none" xmlns="http://www.w3.org/2000/svg">
<path d="M6.43642 0.00352331H1.05974C0.47735 0.00352331 0 0.47209 0 1.04252V21.0748C0 21.6452 0.47735 22.1127 1.05974 22.1127H6.33971C6.92209 22.1127 7.39944 21.6452 7.39944 21.0748V3.25191C7.39944 2.68148 7.87575 2.23533 8.45814 2.25977C8.45814 2.25977 9.49604 2.30459 10.4476 2.85669C12.5765 4.09024 13.2795 6.47483 13.2795 7.78682C13.2795 9.71507 12.0097 11.787 10.3322 11.787C9.41284 11.787 9.2662 11.7085 9.2662 11.7085C8.75454 11.4365 8.33543 11.68 8.33543 12.2514V13.0378C8.33543 13.6082 8.79198 14.2103 9.3494 14.3743C9.3494 14.3743 11.005 14.8622 12.8968 14.8622C14.5795 14.8622 20.6415 13.5818 20.6415 7.81432C20.6446 -0.413094 7.01985 0.00352331 6.43642 0.00352331ZM162.711 8.32465C160.953 7.27751 158.897 6.75495 156.545 6.75495C154.121 6.75495 152.047 7.27751 150.325 8.32465C148.038 9.72628 146.884 11.8644 146.869 14.7369C146.854 15.9908 147.254 17.0899 147.254 17.0899C147.449 17.6288 147.168 18.2481 146.632 18.4681C146.632 18.4681 142.306 21.7073 142.306 14.4629V13.0429C142.306 12.4725 142.784 12.0049 143.366 12.0049H143.962C144.544 12.0049 145.022 11.5374 145.022 10.967V8.47235C145.022 7.90192 144.544 7.43438 143.962 7.43438H143.366C142.784 7.43438 142.306 6.96683 142.306 6.3964V3.54222C142.306 2.97179 141.855 2.65602 141.304 2.84141L136.837 4.34693C136.286 4.53232 135.835 5.15164 135.835 5.72207V6.39538C135.835 6.96581 135.357 7.43336 134.775 7.43336H134.352C133.769 7.43336 133.292 7.9009 133.292 8.47133V10.967C133.292 11.5374 133.769 12.0049 134.352 12.0049H134.775C135.357 12.0049 135.835 12.4725 135.835 13.0429V13.8955C135.835 14.4659 135.881 14.4731 135.817 15.0394C135.817 15.0394 135.4 17.7917 132.478 19.1485C129.871 20.3576 127.632 18.3662 127.203 16.4726C126.519 13.4453 129.434 10.1541 129.423 9.58367L129.402 8.50597C129.391 7.93554 128.905 7.46799 128.322 7.46799H120.345C119.763 7.46799 119.506 7.62282 118.859 6.76412C117.778 5.32685 114.516 5.02635 113.976 7.41706C113.437 9.80777 115.478 10.6155 116.266 10.6716C117.055 10.7276 117.136 11.1534 117.032 11.7156C117.032 11.7156 115.524 19.0538 112.416 19.0538C110.67 19.0538 110.147 15.9582 110.147 15.9582C110.053 15.3949 109.975 14.4669 109.975 13.8965V8.47235C109.975 7.90192 109.497 7.43438 108.915 7.43438H103.93C103.348 7.43438 102.87 7.90192 102.87 8.47235V15.3857C102.87 15.9562 102.796 16.8841 102.703 17.4485C102.703 17.4485 102.59 18.1452 102.033 18.8012C101.475 19.4572 100.855 19.7842 100.182 19.7842C99.5904 19.7842 97.5395 19.2555 97.4459 16.8882C97.2879 12.8575 98.3726 10.8743 100.888 9.25975C101.828 8.6557 101.912 8.47031 101.912 8.06388C101.912 7.65745 101.412 7.31112 100.753 7.35289C100.093 7.39465 89.4818 8.32261 89.4818 15.2554C89.4818 17.754 90.45 19.6487 92.3906 20.9342C93.8705 21.911 95.5875 22.3979 97.5447 22.3979C98.4641 22.3979 99.5082 22.1952 100.678 21.7908C101.994 21.3376 102.562 20.9077 102.562 20.9077C103.01 20.541 103.638 20.4544 104.048 20.8619C104.048 20.8619 105.173 22.3979 108.458 22.3979C118.837 22.3979 119.281 12.0172 119.292 11.2512C119.302 10.4851 119.812 10.587 120.394 10.587H122.958C123.54 10.587 123.712 10.9466 123.339 11.3846C123.339 11.3846 120.967 14.1736 120.967 16.8271C120.967 20.8924 126.083 22.1565 127.544 22.1861C132.877 22.292 135.159 19.2718 135.159 19.2718C135.574 18.8705 136.08 18.9805 136.282 19.5163C136.282 19.5163 136.78 20.8293 137.905 21.471C138.878 22.02 139.424 22.291 140.9 22.291C145.194 22.291 147.716 19.9746 147.716 19.9746C148.243 19.7281 149.025 19.8402 149.457 20.2222C149.457 20.2222 149.742 20.4758 150.429 20.869C152.218 21.9141 154.26 22.4356 156.546 22.4356C158.865 22.4356 160.911 21.9161 162.686 20.869C165.042 19.4888 166.219 17.4128 166.219 14.632C166.218 11.8257 165.05 9.72628 162.711 8.32465ZM156.491 20.2833C155.024 20.2833 154.292 18.5068 154.292 14.9538C154.292 11.1615 155.024 9.26382 156.491 9.26382C157.347 9.26382 157.943 9.83323 158.283 10.9721C158.539 11.8318 158.668 13.1774 158.668 15.0068C158.667 18.5241 157.943 20.2833 156.491 20.2833ZM182.994 8.32465C181.236 7.27751 179.181 6.75495 176.825 6.75495C174.405 6.75495 172.331 7.27751 170.609 8.32465C168.319 9.72628 167.168 11.8644 167.154 14.7369C167.118 17.4454 168.307 19.4888 170.71 20.869C172.502 21.9141 174.542 22.4356 176.827 22.4356C179.149 22.4356 181.199 21.9161 182.971 20.869C185.322 19.4888 186.503 17.4128 186.503 14.632C186.501 11.8257 185.332 9.72628 182.994 8.32465ZM176.774 20.2833C175.307 20.2833 174.572 18.5068 174.572 14.9538C174.572 11.1615 175.306 9.26382 176.774 9.26382C177.627 9.26382 178.224 9.83323 178.564 10.9721C178.821 11.8318 178.949 13.1774 178.949 15.0068C178.949 18.5241 178.225 20.2833 176.774 20.2833ZM73.3601 7.47105H69.5714C68.989 7.47105 68.5117 7.93859 68.5096 8.50902L68.4982 18.2165C68.4982 18.7869 68.26 18.9754 67.9719 18.6352C67.6839 18.2949 65.9575 17.8355 66.2102 16.1966C66.6917 13.0806 62.2593 8.19019 62.2593 8.19019C61.8589 7.7746 61.055 7.43539 60.4726 7.43539H55.2707C54.6883 7.43539 54.2151 7.80719 53.8792 8.27474C53.8792 8.27474 50.5877 16.3565 44.1897 18.738C42.8086 19.2524 41.4296 17.5035 41.4296 13.8975C41.4296 10.2916 41.4296 8.47235 41.4296 8.47235C41.4296 7.90192 40.9523 7.43438 40.3699 7.43438H35.1398C34.5574 7.43438 34.0801 7.90192 34.0801 8.47235V15.3857C34.0801 15.9562 34.0052 16.8841 33.9126 17.4485C33.9126 17.4485 33.7993 18.1452 33.2398 18.8012C32.6824 19.4572 32.0646 19.7842 31.3917 19.7842C30.8 19.7842 30.2134 19.5193 29.6404 18.9947C28.9821 18.4029 28.6545 17.7001 28.6545 16.8882C28.6545 15.675 28.2978 11.6841 31.5425 9.58265C32.6678 8.85433 33.1171 8.4693 33.1171 8.06388C33.1171 7.65847 32.7333 7.35492 31.9575 7.35492C25.5793 7.35492 20.6862 11.0372 20.6862 15.2574C20.6862 17.7561 21.6575 19.6507 23.5971 20.9362C25.0749 21.9131 26.794 22.4 28.7533 22.4C29.6727 22.4 30.7147 22.1973 31.8857 21.7929C33.1982 21.3396 33.9303 20.7417 33.9303 20.7417C34.3786 20.375 35.04 20.4422 35.404 20.8894C35.404 20.8894 36.6291 22.4 39.2124 22.4C49.7598 22.4 55.1864 11.2878 55.1864 11.2878C55.4381 10.7724 55.9238 10.7286 56.267 11.1911L58.6308 14.4445C58.9928 14.8917 58.8108 15.2543 58.2284 15.2492C58.2284 15.2492 51.5257 15.1912 51.5257 18.8368C51.5257 23.8627 60.7274 23.1151 63.7028 20.6143C64.5026 19.942 65.347 19.7393 65.7724 20.1305C65.7724 20.1305 68.4846 22.0761 68.4846 26.1169V26.829C68.4846 27.3994 68.961 27.8669 69.5444 27.8669H74.2305C74.8129 27.8669 75.2903 27.3994 75.2903 26.829V11.2023C75.2903 10.6318 75.7291 10.3456 76.2678 10.5666C76.2678 10.5666 80.7439 10.9181 80.7439 14.8275C80.7439 19.5203 77.2631 19.6008 77.2631 19.6008C76.6807 19.614 76.2034 20.0571 76.2034 20.5838C76.2034 21.1104 76.6589 21.6788 77.2163 21.8458C77.2163 21.8458 78.8189 22.3266 80.5453 22.3266C82.3195 22.3266 88.2775 21.1267 88.2775 15.0058C88.2796 7.06971 73.9435 7.47105 73.3601 7.47105ZM56.5093 20.3739C54.3139 20.2191 53.4372 18.1442 56.9929 17.4973C58.3823 17.2437 60.0546 17.6033 60.0546 17.6033C60.0546 17.6033 60.0535 18.1401 59.8185 18.7879C59.5824 19.4348 58.7359 20.5318 56.5093 20.3739Z" fill="#343434"/>
<path d="M192 5.30081C192 6.88477 190.73 8.12749 189.079 8.12749C187.445 8.12749 186.14 6.88375 186.14 5.30081C186.14 3.75046 187.444 2.50774 189.079 2.50774C190.731 2.50774 192 3.75148 192 5.30081ZM186.872 5.30081C186.872 6.54455 187.811 7.53159 189.098 7.53159C190.349 7.53159 191.271 6.54455 191.271 5.31812C191.271 4.07438 190.348 3.07104 189.079 3.07104C187.809 3.07104 186.872 4.07438 186.872 5.30081ZM188.626 6.76661H187.966V3.97354C188.226 3.92261 188.593 3.88798 189.061 3.88798C189.599 3.88798 189.843 3.97354 190.051 4.0917C190.209 4.21088 190.331 4.43192 190.331 4.70593C190.331 5.01254 190.086 5.24988 189.739 5.35276V5.38637C190.019 5.48925 190.174 5.69298 190.261 6.06783C190.346 6.49362 190.398 6.66474 190.469 6.76559H189.757C189.669 6.66271 189.617 6.40805 189.531 6.08413C189.479 5.77752 189.305 5.64205 188.939 5.64205H188.626V6.76661ZM188.958 5.18265C189.323 5.18265 189.618 5.06347 189.618 4.77418C189.618 4.51952 189.426 4.34839 189.009 4.34839C188.834 4.34839 188.714 4.36571 188.644 4.38303V5.18265H188.958Z" fill="#343434"/>
</svg>
