<svg width="369" height="330" viewBox="0 0 369 330" fill="none" xmlns="http://www.w3.org/2000/svg">
<path fill-rule="evenodd" clip-rule="evenodd" d="M182.486 141.32C188.772 135.789 194.745 132.373 199.507 130.039C245.133 107.901 283.732 137.375 308.944 173.876C315.705 183.652 322.763 200.925 322.282 215.859C321.948 226.352 317.976 235.702 308.091 240.945C297.335 246.701 283.583 245.019 269.878 239.525C250.05 231.595 230.292 215.772 220.436 204.995C209.072 192.56 193.613 171.49 181.24 149C174.93 155.5 168.481 164.332 162.853 176.602C160.332 182.046 158.888 188.876 158.351 196.28C169.509 198.077 180.81 202.161 191.74 208.699C200.92 214.208 218.021 229.389 226.816 244.905C233.087 255.985 235.057 267.236 228.353 275.74C220.011 286.288 209.274 287.052 198.715 282.863C183.843 276.972 169.386 260.882 163.703 250.433C157.097 238.273 153.036 218.374 153.496 200.428C115.473 196.339 80.0369 219.951 70.0204 261.925C69.7091 263.171 68.4325 263.954 67.1718 263.68C65.8976 263.364 65.1077 262.067 65.419 260.821C76.026 216.412 113.494 191.359 153.734 195.639C154.324 187.761 155.864 180.441 158.553 174.622C164.762 161.11 171.924 151.542 178.891 144.645C176.645 140.392 174.523 136.099 172.568 131.797C163.775 112.484 158.556 93.3747 160.967 78.9086C166.534 45.4785 193.459 27.8964 224.042 23.895C254.334 19.9429 288.112 29.3536 307.679 49.4465C308.591 50.3838 308.575 51.8984 307.637 52.7999C306.697 53.7015 305.2 53.6875 304.289 52.7501C285.669 33.6286 253.473 24.7992 224.658 28.5887C196.134 32.3289 170.831 48.5118 165.631 79.6718C163.359 93.4521 168.521 111.482 176.876 129.84C178.616 133.664 180.493 137.488 182.486 141.32ZM158.118 201.068C168.548 202.829 179.098 206.655 189.316 212.785C198.055 218.027 214.313 232.431 222.705 247.255C227.907 256.443 230.21 265.755 224.635 272.792C217.847 281.414 209.055 281.863 200.452 278.453C186.601 273.006 173.159 257.911 167.857 248.161C161.645 236.742 157.743 217.98 158.118 201.068ZM184.774 145.604C190.975 140.009 196.893 136.612 201.575 134.304C244.832 113.306 281.15 141.97 305.051 176.566C311.352 185.669 317.993 201.752 317.553 215.711C317.264 224.452 314.126 232.385 305.866 236.777C296.23 241.939 283.921 240.06 271.645 235.151C252.509 227.497 233.435 212.184 223.927 201.796C212.561 189.361 197.046 168.173 184.774 145.604Z" fill="#FF72CF"/>
<path fill-rule="evenodd" clip-rule="evenodd" d="M68.4497 259.318C70.3206 257.792 75.7217 253.419 76.556 252.781C78.9041 251.007 80.332 250.449 81.847 250.045C83.0685 249.738 84.3771 249.584 86.5851 248.726C87.7981 248.238 89.1763 248.885 89.6435 250.105C90.1107 251.325 89.4895 252.672 88.2765 253.159C86.2658 253.908 84.9315 254.207 83.7585 254.453C82.4118 254.756 81.3815 255.047 79.4103 256.56C78.4448 257.287 73.5125 261.918 70.8489 263.566C69.4618 264.431 68.2618 264.595 67.6712 264.468C66.8252 264.287 65.9125 263.761 65.0755 262.754C64.0064 261.456 62.8571 259.087 61.5099 256.462C60.2497 253.992 58.77 251.228 56.8331 249.025C55.1925 247.182 53.2289 245.765 50.675 245.593C49.3732 245.515 48.3841 244.42 48.4606 243.114C48.5371 241.808 49.6582 240.802 50.96 240.88C54.8063 241.087 57.8924 243.097 60.3772 245.899C62.5751 248.383 64.2881 251.483 65.7235 254.308C66.5895 255.992 67.3489 257.574 68.061 258.759C68.174 258.951 68.3119 259.135 68.4497 259.318Z" fill="#FF72CF"/>
</svg>
